<svg xmlns="http://www.w3.org/2000/svg" viewBox="0 0 400 300" width="400" height="300">
  <!-- Фон -->
  <defs>
    <linearGradient id="bgGradient" x1="0%" y1="0%" x2="100%" y2="100%">
      <stop offset="0%" style="stop-color:#1e3a8a;stop-opacity:1" />
      <stop offset="100%" style="stop-color:#3b82f6;stop-opacity:1" />
    </linearGradient>
    
    <linearGradient id="gridGradient" x1="0%" y1="0%" x2="0%" y2="100%">
      <stop offset="0%" style="stop-color:#ffffff;stop-opacity:0.1" />
      <stop offset="100%" style="stop-color:#ffffff;stop-opacity:0.05" />
    </linearGradient>
  </defs>
  
  <!-- Основной фон -->
  <rect width="400" height="300" fill="url(#bgGradient)"/>
  
  <!-- Белая область графика -->
  <rect x="40" y="30" width="340" height="240" rx="10" fill="#ffffff" opacity="0.95"/>
  
  <!-- Сетка -->
  <g stroke="#cccccc" stroke-width="1" opacity="0.5">
    <!-- Вертикальные линии -->
    <line x1="100" y1="40" x2="100" y2="260"/>
    <line x1="160" y1="40" x2="160" y2="260"/>
    <line x1="220" y1="40" x2="220" y2="260"/>
    <line x1="280" y1="40" x2="280" y2="260"/>
    <line x1="340" y1="40" x2="340" y2="260"/>
    
    <!-- Горизонтальные линии -->
    <line x1="50" y1="80" x2="370" y2="80"/>
    <line x1="50" y1="125" x2="370" y2="125"/>
    <line x1="50" y1="170" x2="370" y2="170"/>
    <line x1="50" y1="215" x2="370" y2="215"/>
  </g>
  
  <!-- Оси координат -->
  <g stroke="#333333" stroke-width="2">
    <!-- Ось X -->
    <line x1="50" y1="260" x2="370" y2="260"/>
    <polygon points="370,260 365,257 365,263" fill="#333333"/>
    
    <!-- Ось Y -->
    <line x1="50" y1="260" x2="50" y2="40"/>
    <polygon points="50,40 47,45 53,45" fill="#333333"/>
  </g>
  
  <!-- График 1 - Синяя кривая (синусоида) -->
  <path d="M 50,150 Q 100,100 150,130 T 250,140 T 350,120" 
        stroke="#2196F3" stroke-width="3" fill="none" stroke-linecap="round"/>
  
  <!-- Точки на синей кривой -->
  <circle cx="50" cy="150" r="5" fill="#2196F3"/>
  <circle cx="100" cy="100" r="5" fill="#2196F3"/>
  <circle cx="150" cy="130" r="5" fill="#2196F3"/>
  <circle cx="200" cy="110" r="5" fill="#2196F3"/>
  <circle cx="250" cy="140" r="5" fill="#2196F3"/>
  <circle cx="300" cy="130" r="5" fill="#2196F3"/>
  <circle cx="350" cy="120" r="5" fill="#2196F3"/>
  
  <!-- График 2 - Красная кривая (парабола) -->
  <path d="M 50,240 Q 150,200 200,180 T 300,100 L 350,70" 
        stroke="#FF5722" stroke-width="3" fill="none" stroke-linecap="round" stroke-dasharray="8,4"/>
  
  <!-- Точки на красной кривой -->
  <rect x="45" y="235" width="10" height="10" fill="#FF5722"/>
  <rect x="145" y="195" width="10" height="10" fill="#FF5722"/>
  <rect x="195" y="175" width="10" height="10" fill="#FF5722"/>
  <rect x="245" y="135" width="10" height="10" fill="#FF5722"/>
  <rect x="295" y="95" width="10" height="10" fill="#FF5722"/>
  <rect x="345" y="65" width="10" height="10" fill="#FF5722"/>
  
  <!-- График 3 - Зеленая кривая (экспонента) -->
  <path d="M 50,230 L 100,220 L 150,200 L 200,160 L 250,100 L 300,60 L 350,50" 
        stroke="#4CAF50" stroke-width="3" fill="none" stroke-linecap="round"/>
  
  <!-- Треугольные точки на зеленой кривой -->
  <polygon points="50,225 55,235 45,235" fill="#4CAF50"/>
  <polygon points="100,215 105,225 95,225" fill="#4CAF50"/>
  <polygon points="150,195 155,205 145,205" fill="#4CAF50"/>
  <polygon points="200,155 205,165 195,165" fill="#4CAF50"/>
  <polygon points="250,95 255,105 245,105" fill="#4CAF50"/>
  <polygon points="300,55 305,65 295,65" fill="#4CAF50"/>
  <polygon points="350,45 355,55 345,55" fill="#4CAF50"/>
  
  <!-- Подписи осей -->
  <text x="365" y="280" font-family="Arial" font-size="14" fill="#333" font-weight="bold">X</text>
  <text x="30" y="35" font-family="Arial" font-size="14" fill="#333" font-weight="bold">Y</text>
  
  <!-- Иконка курсора (редактирование) -->
  <g transform="translate(320, 180)">
    <path d="M 0,0 L 0,20 L 7,15 L 10,22 L 13,20 L 10,13 L 17,13 Z" 
          fill="#FFD700" stroke="#333" stroke-width="1"/>
  </g>
  
  <!-- Декоративные элементы - точки редактирования -->
  <circle cx="200" cy="110" r="8" fill="none" stroke="#FFD700" stroke-width="2" opacity="0.7">
    <animate attributeName="r" values="8;12;8" dur="2s" repeatCount="indefinite"/>
  </circle>
  
  <!-- Заголовок -->
  <text x="200" y="20" font-family="Arial, sans-serif" font-size="18" fill="#ffffff" 
        text-anchor="middle" font-weight="bold">📊 Построитель графиков</text>
</svg>
