<svg xmlns="http://www.w3.org/2000/svg" width="800" height="600" viewBox="0 0 800 600">
  <defs>
    <linearGradient id="bgGrad" x1="0%" y1="0%" x2="100%" y2="100%">
      <stop offset="0%" style="stop-color:#667eea;stop-opacity:1" />
      <stop offset="100%" style="stop-color:#764ba2;stop-opacity:1" />
    </linearGradient>
    <linearGradient id="headerGrad" x1="0%" y1="0%" x2="100%" y2="0%">
      <stop offset="0%" style="stop-color:#2c3e50;stop-opacity:1" />
      <stop offset="100%" style="stop-color:#34495e;stop-opacity:1" />
    </linearGradient>
    <linearGradient id="btnGrad" x1="0%" y1="0%" x2="100%" y2="0%">
      <stop offset="0%" style="stop-color:#27ae60;stop-opacity:1" />
      <stop offset="100%" style="stop-color:#229954;stop-opacity:1" />
    </linearGradient>
  </defs>
  
  <!-- Background -->
  <rect width="800" height="600" fill="url(#bgGrad)"/>
  
  <!-- Main Container -->
  <rect x="50" y="40" width="700" height="520" rx="20" fill="white" filter="drop-shadow(0 10px 30px rgba(0,0,0,0.3))"/>
  
  <!-- Header -->
  <rect x="50" y="40" width="700" height="80" rx="20" fill="url(#headerGrad)"/>
  <text x="400" y="75" font-family="Arial, sans-serif" font-size="28" font-weight="bold" fill="white" text-anchor="middle">โ๏ธ ะะฐััะตั ัะตะถะธะผะพะฒ ัะตะทะฐะฝะธั</text>
  <text x="400" y="100" font-family="Arial, sans-serif" font-size="14" fill="#16a085" text-anchor="middle">ะฟัะธ ััะตะทะตัะพะฒะฐะฝะธะธ v1.0</text>
  
  <!-- Left Column -->
  <rect x="70" y="140" width="320" height="160" rx="10" fill="#f8f9fa" stroke="#e9ecef" stroke-width="2"/>
  <text x="85" y="165" font-family="Arial, sans-serif" font-size="16" font-weight="bold" fill="#2c3e50">๐ง ะขะธะฟ ะพะฟะตัะฐัะธะธ</text>
  <rect x="85" y="175" width="290" height="30" rx="5" fill="white" stroke="#dce4ec" stroke-width="2"/>
  <text x="95" y="196" font-family="Arial, sans-serif" font-size="13" fill="#555">ะขะพััะพะฒัะต ััะตะทั</text>
  <rect x="85" y="215" width="290" height="30" rx="5" fill="white" stroke="#dce4ec" stroke-width="2"/>
  <text x="95" y="236" font-family="Arial, sans-serif" font-size="13" fill="#555">ะคัะตะทะตัะพะฒะฐะฝะธะต ะฟะปะพัะบะพััะตะน</text>
  
  <rect x="70" y="320" width="320" height="120" rx="10" fill="#f8f9fa" stroke="#e9ecef" stroke-width="2"/>
  <text x="85" y="345" font-family="Arial, sans-serif" font-size="16" font-weight="bold" fill="#2c3e50">๐ฉ ะะฐัะตัะธะฐะปั</text>
  <rect x="85" y="355" width="290" height="30" rx="5" fill="white" stroke="#dce4ec" stroke-width="2"/>
  <text x="95" y="376" font-family="Arial, sans-serif" font-size="12" fill="#555">ะกัะฐะปั ะบะพะฝััััะบัะธะพะฝะฝะฐั</text>
  <rect x="85" y="395" width="290" height="30" rx="5" fill="white" stroke="#dce4ec" stroke-width="2"/>
  <text x="95" y="416" font-family="Arial, sans-serif" font-size="12" fill="#555">ะััััะพัะตะถััะฐั ััะฐะปั ะ6ะ5</text>
  
  <!-- Right Column -->
  <rect x="410" y="140" width="320" height="180" rx="10" fill="#f8f9fa" stroke="#e9ecef" stroke-width="2"/>
  <text x="425" y="165" font-family="Arial, sans-serif" font-size="16" font-weight="bold" fill="#2c3e50">๐ ะะฐัะฐะผะตััั ััะตะทั</text>
  
  <text x="425" y="190" font-family="Arial, sans-serif" font-size="12" fill="#555">ะะธะฐะผะตัั D, ะผะผ:</text>
  <rect x="560" y="175" width="150" height="25" rx="5" fill="white" stroke="#3498db" stroke-width="2"/>
  <text x="570" y="193" font-family="Arial, sans-serif" font-size="14" fill="#2c3e50">160</text>
  
  <text x="425" y="225" font-family="Arial, sans-serif" font-size="12" fill="#555">ะงะธัะปะพ ะทัะฑัะตะฒ z:</text>
  <rect x="560" y="210" width="150" height="25" rx="5" fill="white" stroke="#3498db" stroke-width="2"/>
  <text x="570" y="228" font-family="Arial, sans-serif" font-size="14" fill="#2c3e50">18</text>
  
  <text x="425" y="260" font-family="Arial, sans-serif" font-size="12" fill="#555">ะะปัะฑะธะฝะฐ t, ะผะผ:</text>
  <rect x="560" y="245" width="150" height="25" rx="5" fill="white" stroke="#3498db" stroke-width="2"/>
  <text x="570" y="263" font-family="Arial, sans-serif" font-size="14" fill="#2c3e50">4</text>
  
  <text x="425" y="295" font-family="Arial, sans-serif" font-size="12" fill="#555">ะะพะดะฐัะฐ Sz, ะผะผ/ะทัะฑ:</text>
  <rect x="560" y="280" width="150" height="25" rx="5" fill="white" stroke="#3498db" stroke-width="2"/>
  <text x="570" y="298" font-family="Arial, sans-serif" font-size="14" fill="#2c3e50">0.3</text>
  
  <rect x="410" y="340" width="320" height="100" rx="10" fill="#f8f9fa" stroke="#e9ecef" stroke-width="2"/>
  <text x="425" y="365" font-family="Arial, sans-serif" font-size="16" font-weight="bold" fill="#2c3e50">๐ญ ะะฐัะฐะผะตััั ััะฐะฝะบะฐ</text>
  
  <text x="425" y="390" font-family="Arial, sans-serif" font-size="12" fill="#555">ะะพะดะตะปั:</text>
  <rect x="560" y="375" width="150" height="25" rx="5" fill="white" stroke="#dce4ec" stroke-width="2"/>
  <text x="570" y="393" font-family="Arial, sans-serif" font-size="14" fill="#2c3e50">6ะ81</text>
  
  <text x="425" y="425" font-family="Arial, sans-serif" font-size="12" fill="#555">ะะพัะฝะพััั, ะบะั:</text>
  <rect x="560" y="410" width="150" height="25" rx="5" fill="white" stroke="#dce4ec" stroke-width="2"/>
  <text x="570" y="428" font-family="Arial, sans-serif" font-size="14" fill="#2c3e50">5.5</text>
  
  <!-- Buttons -->
  <rect x="70" y="470" width="200" height="50" rx="10" fill="url(#btnGrad)"/>
  <text x="170" y="500" font-family="Arial, sans-serif" font-size="16" font-weight="bold" fill="white" text-anchor="middle">๐ ะะฐััะตั</text>
  
  <rect x="290" y="470" width="200" height="50" rx="10" fill="#3498db"/>
  <text x="390" y="500" font-family="Arial, sans-serif" font-size="16" font-weight="bold" fill="white" text-anchor="middle">๐ ะััะตั</text>
  
  <rect x="510" y="470" width="120" height="50" rx="10" fill="#9b59b6"/>
  <text x="570" y="500" font-family="Arial, sans-serif" font-size="16" font-weight="bold" fill="white" text-anchor="middle">๐พ</text>
  
  <rect x="650" y="470" width="80" height="50" rx="10" fill="#e67e22"/>
  <text x="690" y="500" font-family="Arial, sans-serif" font-size="16" font-weight="bold" fill="white" text-anchor="middle">๐๏ธ</text>
  
  <!-- Decorative gear icons -->
  <circle cx="730" cy="170" r="20" fill="none" stroke="#3498db" stroke-width="3" opacity="0.3"/>
  <circle cx="730" cy="170" r="15" fill="none" stroke="#3498db" stroke-width="2" opacity="0.3"/>
  <line x1="715" y1="170" x2="745" y2="170" stroke="#3498db" stroke-width="2" opacity="0.3"/>
  <line x1="730" y1="155" x2="730" y2="185" stroke="#3498db" stroke-width="2" opacity="0.3"/>
</svg>
