<svg xmlns="http://www.w3.org/2000/svg" width="800" height="600" viewBox="0 0 800 600">
  <defs>
    <radialGradient id="bg1" cx="20%" cy="0%" r="70%">
      <stop offset="0%" stop-color="#3a2f1e"/>
      <stop offset="100%" stop-color="#14120f" stop-opacity="0"/>
    </radialGradient>
    <radialGradient id="bg2" cx="100%" cy="10%" r="60%">
      <stop offset="0%" stop-color="#24301f"/>
      <stop offset="100%" stop-color="#14120f" stop-opacity="0"/>
    </radialGradient>
    <linearGradient id="amber" x1="0" y1="0" x2="1" y2="0">
      <stop offset="0%" stop-color="#e0a458"/>
      <stop offset="100%" stop-color="#a97a3c"/>
    </linearGradient>
  </defs>
  <rect width="800" height="600" fill="#14120f"/>
  <rect width="800" height="600" fill="url(#bg1)"/>
  <rect width="800" height="600" fill="url(#bg2)"/>

  <g stroke="#3d362a" stroke-width="1">
    <line x1="0" y1="180" x2="800" y2="180"/>
    <line x1="0" y1="300" x2="800" y2="300"/>
    <line x1="0" y1="420" x2="800" y2="420"/>
  </g>
  <line x1="720" y1="120" x2="720" y2="480" stroke="#e0a458" stroke-width="3" stroke-dasharray="10 10" opacity="0.6"/>

  <g id="roach-rust" transform="translate(300,150) scale(1.4)">
    <ellipse cx="0" cy="0" rx="26" ry="16" fill="#b5541e" stroke="#1a140d" stroke-width="2"/>
    <ellipse cx="-15" cy="0" rx="11" ry="10" fill="#b5541e" stroke="#1a140d" stroke-width="1.6"/>
    <g stroke="#1a140d" stroke-width="2" stroke-linecap="round">
      <line x1="-4" y1="-13" x2="-12" y2="-26"/>
      <line x1="-4" y1="13" x2="-12" y2="26"/>
      <line x1="7" y1="-13" x2="0" y2="-27"/>
      <line x1="7" y1="13" x2="0" y2="27"/>
      <line x1="16" y1="-13" x2="12" y2="-25"/>
      <line x1="16" y1="13" x2="12" y2="25"/>
      <line x1="-24" y1="-4" x2="-38" y2="-14"/>
      <line x1="-24" y1="4" x2="-38" y2="14"/>
    </g>
  </g>

  <g id="roach-olive" transform="translate(430,270) scale(1.7)">
    <ellipse cx="0" cy="0" rx="26" ry="16" fill="#5c6b3a" stroke="#1a140d" stroke-width="2"/>
    <ellipse cx="-15" cy="0" rx="11" ry="10" fill="#5c6b3a" stroke="#1a140d" stroke-width="1.6"/>
    <g stroke="#1a140d" stroke-width="2" stroke-linecap="round">
      <line x1="-4" y1="-13" x2="-14" y2="-24"/>
      <line x1="-4" y1="13" x2="-14" y2="24"/>
      <line x1="7" y1="-13" x2="2" y2="-27"/>
      <line x1="7" y1="13" x2="2" y2="27"/>
      <line x1="16" y1="-13" x2="14" y2="-23"/>
      <line x1="16" y1="13" x2="14" y2="23"/>
      <line x1="-24" y1="-4" x2="-40" y2="-10"/>
      <line x1="-24" y1="4" x2="-40" y2="10"/>
    </g>
  </g>

  <g id="roach-sand" transform="translate(230,390) scale(1.1)">
    <ellipse cx="0" cy="0" rx="26" ry="16" fill="#c9a869" stroke="#1a140d" stroke-width="2"/>
    <ellipse cx="-15" cy="0" rx="11" ry="10" fill="#c9a869" stroke="#1a140d" stroke-width="1.6"/>
    <g stroke="#1a140d" stroke-width="2" stroke-linecap="round">
      <line x1="-4" y1="-13" x2="-10" y2="-27"/>
      <line x1="-4" y1="13" x2="-10" y2="27"/>
      <line x1="7" y1="-13" x2="-1" y2="-26"/>
      <line x1="7" y1="13" x2="-1" y2="26"/>
      <line x1="16" y1="-13" x2="11" y2="-26"/>
      <line x1="16" y1="13" x2="11" y2="26"/>
      <line x1="-24" y1="-4" x2="-36" y2="-17"/>
      <line x1="-24" y1="4" x2="-36" y2="17"/>
    </g>
  </g>

  <text x="60" y="90" font-family="Georgia, 'Times New Roman', serif" font-size="46" fill="#f1ead9" font-weight="700">Тараканьи бега</text>
  <text x="60" y="128" font-family="Arial, sans-serif" font-size="20" fill="#b3a892">порода · тренировка · трассы · звук и вибрация</text>

  <g transform="translate(60,500)">
    <rect x="0" y="0" width="170" height="40" rx="20" fill="none" stroke="url(#amber)" stroke-width="2"/>
    <text x="85" y="26" font-family="Arial, sans-serif" font-size="15" fill="#e0a458" text-anchor="middle">🎤 звук</text>
  </g>
  <g transform="translate(250,500)">
    <rect x="0" y="0" width="190" height="40" rx="20" fill="none" stroke="url(#amber)" stroke-width="2"/>
    <text x="95" y="26" font-family="Arial, sans-serif" font-size="15" fill="#e0a458" text-anchor="middle">📳 вибрация стола</text>
  </g>
</svg>
